<?xml version="1.0" encoding="utf-8"?>
<!-- Generator: Adobe Illustrator 27.7.0, SVG Export Plug-In . SVG Version: 6.00 Build 0)  -->
<svg version="1.1" id="Layer_1" xmlns="http://www.w3.org/2000/svg" xmlns:xlink="http://www.w3.org/1999/xlink" x="0px" y="0px"
	 viewBox="0 0 60.01 53.01" style="enable-background:new 0 0 60.01 53.01;" xml:space="preserve">
<style type="text/css">
	.st0{fill:#E59205;}
</style>
<g>
	<path class="st0" d="M48.2,27.56l-0.02-0.48c0-0.74-5.92-10.5-8-10.5c-0.44,0-2.17,0.42-4.33,1c-0.81-2.11-2.85-3.62-5.25-3.62
		c-0.43,0-0.85,0.05-1.25,0.15c-0.73-1.63-2.61-5.03-6.18-6.99L22.2,8.87c3.01,1.65,4.66,4.62,5.3,6.02
		c-1.52,1.01-2.53,2.73-2.53,4.69c0,0.37,0.04,0.73,0.11,1.08C13,24.29,12.39,25.03,12.17,25.6c-1.16,2.52-0.92,17,0.32,17.94
		c0.91,0.68,26.11,2.35,31.48,2.35c2.99,0,3.63-0.21,4.01-0.73C48.35,44.67,49.02,43.76,48.2,27.56 M30.6,15.96
		c2,0,3.62,1.63,3.62,3.62s-1.63,3.62-3.62,3.62s-3.62-1.63-3.62-3.62S28.6,15.96,30.6,15.96 M30.6,25.21c3.1,0,5.62-2.52,5.62-5.62
		c0-0.02,0-0.04,0-0.06c1.87-0.5,3.28-0.85,3.84-0.93c1.22,0.82,5.3,7.14,6.09,8.64L14.27,26.4c1.55-0.73,6.42-2.32,11.54-3.87
		C26.81,24.13,28.58,25.21,30.6,25.21 M46.42,43.79c-0.32,0.05-1.01,0.1-2.44,0.1c-7.49,0-26.43-1.59-30.06-2.03
		c-0.31-2.19-0.74-9.71-0.35-13.48l32.72,0.85C46.8,40.16,46.53,43.08,46.42,43.79"/>
	<path class="st0" d="M17.33,30.49h-1.06c-0.08,3.2-0.04,7.19,0.13,9.92h1.11C17.39,37.93,17.28,33.7,17.33,30.49"/>
</g>
</svg>
