<?xml version="1.0" encoding="utf-8"?>
<!-- Generator: Adobe Illustrator 27.7.0, SVG Export Plug-In . SVG Version: 6.00 Build 0)  -->
<svg version="1.1" id="Layer_1" xmlns="http://www.w3.org/2000/svg" xmlns:xlink="http://www.w3.org/1999/xlink" x="0px" y="0px"
	 viewBox="0 0 60.01 53.01" style="enable-background:new 0 0 60.01 53.01;" xml:space="preserve">
<style type="text/css">
	.st0{fill:#E59205;}
</style>
<g>
	<path class="st0" d="M50.22,9.5c-0.07-0.53-0.34-1-0.76-1.33L48.5,7.43c-0.85-0.65-2.15-0.48-2.81,0.36l-8.6,11.14
		c-0.8-0.92-1.51-1.68-1.93-2.04c-1.82-1.59-4.77-1.64-5.95-1.59c-1.28,0.05-2.88,0.87-3.79,1.64c-0.34,0.28-0.66,0.62-0.98,0.95
		c-0.58,0.6-1.18,1.22-1.76,1.44c-0.57,0.22-0.76,0.26-1.1,0.35c-0.23,0.06-0.51,0.12-0.96,0.25l-0.19,0.06
		c-1.19,0.34-1.91,0.55-2.94,1.24c-1.19,0.8-1.99,1.48-2.8,2.79l-0.07,0.12c-0.98,1.6-1.49,2.44-2.29,5.51h-0.58c-1.1,0-2,0.9-2,2
		v0.35l6.14,7.73v4.25c0,1.1,0.9,2,2,2h21.31c1.1,0,2-0.9,2-2v-4.25l5.54-7.76v-0.32c0-1.1-0.9-2-2-2h-1.29
		c-0.05-0.82-0.48-2.06-1.18-3.83l-0.04-0.1c-0.17-0.44-0.88-1.45-1.78-2.64l9.34-12.1C50.15,10.55,50.29,10.03,50.22,9.5
		 M39.23,43.98H17.91v-3.85h21.31V43.98z M44.54,31.64l-5.34,7.48H17.99l-5.94-7.48H44.54z M41.48,29.64H14.42
		c0.64-2.36,1.07-3.08,1.92-4.46l0.07-0.12c0.62-1,1.2-1.5,2.2-2.17c0.77-0.52,1.24-0.65,2.38-0.98l0.19-0.06
		c0.41-0.12,0.67-0.18,0.88-0.23c0.38-0.09,0.65-0.16,1.34-0.42c0.99-0.38,1.79-1.19,2.49-1.92c0.29-0.29,0.56-0.58,0.84-0.82
		c0.73-0.62,1.89-1.14,2.58-1.17c0.73-0.03,3.23-0.05,4.55,1.1c0.38,0.33,0.98,0.98,1.66,1.76c0,0,0.01,0,0.01,0.01
		c0.2,0.16,0.36,0.36,0.51,0.57c0.41,0.4,0.8,0.82,1.15,1.27c0.53,0.66,1.08,1.31,1.59,1.98c0.18,0.23,0.32,0.45,0.44,0.68
		c0.02,0.03,0.04,0.07,0.06,0.1c0.09,0.11,0.16,0.23,0.22,0.35c0.46,0.62,0.8,1.12,0.89,1.33l0.04,0.1
		C41.06,28.13,41.41,29.17,41.48,29.64 M39.21,21.46c-0.26-0.32-0.52-0.64-0.79-0.96l8.86-11.48l0.96,0.74L39.21,21.46z"/>
	<path class="st0" d="M20.47,25.19h-0.44c-0.42,0-0.76,0.34-0.76,0.76v0.44c0,0.42,0.34,0.76,0.76,0.76h0.44
		c0.42,0,0.76-0.34,0.76-0.76v-0.44C21.23,25.52,20.89,25.19,20.47,25.19"/>
	<path class="st0" d="M28.62,21.24c0.42,0,0.76-0.34,0.76-0.76v-0.44c0-0.42-0.34-0.76-0.76-0.76h-0.44c-0.42,0-0.76,0.34-0.76,0.76
		v0.44c0,0.42,0.34,0.76,0.76,0.76H28.62z"/>
	<path class="st0" d="M34.77,24.64c0.42,0,0.77-0.34,0.77-0.77v-0.45c0-0.43-0.35-0.77-0.77-0.77h-0.45c-0.43,0-0.77,0.34-0.77,0.77
		v0.45c0,0.43,0.34,0.77,0.77,0.77H34.77z"/>
	<path class="st0" d="M29.14,25.71H28.7c-0.42,0-0.75,0.34-0.75,0.75v0.44c0,0.42,0.34,0.76,0.75,0.76h0.44
		c0.42,0,0.75-0.34,0.75-0.76v-0.44C29.9,26.04,29.56,25.71,29.14,25.71"/>
	<polygon class="st0" points="20.36,37.23 20.36,37.23 17.19,33.23 15.91,33.23 19.09,37.23 	"/>
</g>
</svg>
