<?xml version="1.0" encoding="utf-8"?>
<!-- Generator: Adobe Illustrator 27.7.0, SVG Export Plug-In . SVG Version: 6.00 Build 0)  -->
<svg version="1.1" id="Layer_1" xmlns="http://www.w3.org/2000/svg" xmlns:xlink="http://www.w3.org/1999/xlink" x="0px" y="0px"
	 viewBox="0 0 60.01 53.01" style="enable-background:new 0 0 60.01 53.01;" xml:space="preserve">
<style type="text/css">
	.st0{fill:#E59205;}
</style>
<g>
	<path class="st0" d="M21.19,24.73c-4.85,0-8.78,1.52-8.78,3.39c0,1.87,3.93,3.39,8.78,3.39c4.85,0,8.78-1.52,8.78-3.39
		C29.97,26.25,26.04,24.73,21.19,24.73 M21.16,29c-2.07,0-3.75-0.5-3.75-1.12c0-0.62,1.68-1.12,3.75-1.12s3.75,0.5,3.75,1.12
		C24.91,28.5,23.23,29,21.16,29"/>
	<rect x="12.16" y="31.97" class="st0" width="1" height="7"/>
	<path class="st0" d="M32.26,13.12c0-1.87-3.93-3.39-8.78-3.39c-4.85,0-8.78,1.52-8.78,3.39c0,1.87,3.93,3.39,8.78,3.39
		C28.32,16.5,32.26,14.99,32.26,13.12 M19.69,12.88c0-0.62,1.68-1.12,3.75-1.12c2.07,0,3.75,0.5,3.75,1.12
		c0,0.62-1.68,1.12-3.75,1.12C21.37,14,19.69,13.5,19.69,12.88"/>
	<path class="st0" d="M51.4,19.23c-0.17-3.28-6.48-4.99-12.73-4.99c-0.76,0-1.53,0.03-2.28,0.08v-2.68h-0.02
		c-0.17-3.28-6.48-4.99-12.73-4.99c-6.34,0-12.75,1.76-12.75,5.12v11.95c-1.41,0.8-2.28,1.81-2.28,3.05V41.5h0.03
		c0.32,3.2,6.55,4.87,12.72,4.87c6.17,0,12.4-1.67,12.72-4.87h0.03v-2.87c1.47,0.21,3.01,0.34,4.56,0.34
		c6.17,0,12.4-1.67,12.72-4.87h0.03V19.23H51.4z M12.88,11.76c0-1.25,4.29-3.12,10.75-3.12c6.46,0,10.75,1.88,10.75,3.12v2.75
		c-4.65,0.62-8.47,2.25-8.47,4.85v2.59c-1.46-0.21-3.01-0.31-4.56-0.31c-3.05,0-6.11,0.41-8.47,1.21V11.76z M32.1,41.25
		c0,1.25-4.29,3.12-10.75,3.12c-6.46,0-10.75-1.88-10.75-3.12V26.76c0-1.25,4.29-3.12,10.75-3.12c6.46,0,10.75,1.88,10.75,3.12
		V41.25z M49.41,33.85c0,1.24-4.29,3.12-10.75,3.12c-1.69,0-3.21-0.13-4.56-0.35v-10h-0.02c-0.11-2.08-2.7-3.53-6.17-4.31v-2.96
		c0-1.24,4.29-3.12,10.75-3.12s10.75,1.88,10.75,3.12V33.85z"/>
	<path class="st0" d="M38.5,17.33c-4.85,0-8.78,1.52-8.78,3.39c0,1.87,3.93,3.39,8.78,3.39c4.85,0,8.78-1.52,8.78-3.39
		C47.29,18.85,43.35,17.33,38.5,17.33 M38.47,21.6c-2.07,0-3.75-0.5-3.75-1.12c0-0.62,1.68-1.12,3.75-1.12
		c2.07,0,3.75,0.5,3.75,1.12C42.22,21.1,40.54,21.6,38.47,21.6"/>
</g>
</svg>
