<?xml version="1.0" encoding="utf-8"?>
<!-- Generator: Adobe Illustrator 27.7.0, SVG Export Plug-In . SVG Version: 6.00 Build 0)  -->
<svg version="1.1" id="Layer_1" xmlns="http://www.w3.org/2000/svg" xmlns:xlink="http://www.w3.org/1999/xlink" x="0px" y="0px"
	 viewBox="0 0 60.01 53.01" style="enable-background:new 0 0 60.01 53.01;" xml:space="preserve">
<style type="text/css">
	.st0{fill:#E59205;}
</style>
<g>
	<path class="st0" d="M48.86,18.31c-1.16-2.5-8.26-8.64-11.02-9.53c-2.04-0.66-3.45-0.94-4.7-0.94c-1.46,0-2.71,0.39-4.15,0.96
		c-1.1,0.44-3.65,2.51-7.72,5.85c-1.48,1.22-3,2.46-4.36,3.54c-4.44,3.52-6.47,5.87-6.61,6.04l-0.6,0.84
		c-0.08,0.32-0.23,0.6-0.34,0.91c-0.03,0.08-0.04,0.17-0.06,0.25c0.01,0.34-0.03,0.68-0.08,1.02v3.9c0,0.2,0.07,1.21,1.52,1.21
		c0.14,0,0.31-0.01,0.49-0.02c0.17-0.01,0.36-0.02,0.55-0.02c0.67,0,0.84,0.13,0.88,0.17c0.05,0.06,0.1,0.25,0.07,0.6
		c-0.11,1.03-0.43,1.03-0.74,1.03c-0.23,0-0.48-0.04-0.73-0.08c-0.86-0.15-1.32-0.07-1.68,0.29c-0.23,0.23-0.35,0.54-0.35,0.87v7.33
		c0.01,0.04,0.03,0.08,0.03,0.12c0.01,0.13,0.03,0.26,0.06,0.39c0.37,0.92,0.84,1.66,1.92,1.97c0.18,0.05,0.36,0.09,0.54,0.13
		c0.03,0,0.06,0.01,0.09,0.01c5.07-0.5,32.8-3.24,34.7-3.81c4-1.2,4.16-5.91,4.21-7.46C50.87,31.44,50.07,20.92,48.86,18.31
		 M48.78,33.82c-0.12,3.3-1,5.08-2.79,5.62c-1.34,0.4-20.59,2.38-33.82,3.68c-0.03,0.02-0.08,0.02-0.11,0.03
		c-0.02,0.01-0.05,0.01-0.07,0.02c-0.02,0-0.03,0.01-0.06,0.01c0,0,0,0-0.01,0c-0.03,0-0.05,0.02-0.09,0.02
		c-0.03,0-0.04-0.01-0.07-0.01c-0.02,0-0.03,0.01-0.06,0.01c-0.27,0-0.42-0.18-0.46-0.39l-0.04-0.03v-6.71
		c0.23,0.03,0.49,0.06,0.76,0.06c0.91,0,2.47-0.37,2.73-2.82c0.09-0.9-0.1-1.62-0.57-2.14c-0.67-0.74-1.67-0.83-2.36-0.83
		c-0.19,0-0.38,0.01-0.56,0.01v-2.55c-0.02-0.16-0.03-0.3-0.02-0.44c-0.02-0.16-0.03-0.33-0.02-0.5c0-0.01,0-0.03,0-0.04
		c0,0,0,0,0.01,0c0,0,0-0.01,0-0.01c0-0.01-0.01-0.02-0.01-0.04c0-0.05,0.02-0.09,0.02-0.13h0c0,0,0-0.01,0-0.01
		c0-0.04,0.02-0.07,0.03-0.11v-0.14l0.05-0.06c0.16-0.58,0.6-1.05,1.14-1.42c0.84-0.88,2.7-2.72,5.75-5.13
		c1.38-1.09,2.9-2.34,4.39-3.56c2.97-2.43,6.33-5.19,7.2-5.54c1.48-0.6,2.4-0.82,3.4-0.82c1.03,0,2.26,0.25,4.09,0.84
		c1.7,0.55,5.84,3.89,8.2,6.39l-11.83,2.3c-2.35,0.66-4.78,1.13-7.05,1.99c-0.06,0.12-0.04,0.21,0.03,0.29
		c0.14,0,0.29,0.01,0.43,0.02l19.19-3.73c0.39,0.47,0.69,0.89,0.84,1.21C48.02,21.27,48.87,31.35,48.78,33.82"/>
	<path class="st0" d="M41.66,23.14c-1.91,0-3.47,1.59-3.47,3.55c0,1.96,1.56,3.55,3.47,3.55c1.91,0,3.47-1.59,3.47-3.55
		C45.13,24.73,43.57,23.14,41.66,23.14 M41.66,29.23c-1.36,0-2.47-1.14-2.47-2.55c0-1.4,1.11-2.55,2.47-2.55
		c1.36,0,2.47,1.14,2.47,2.55C44.13,28.09,43.02,29.23,41.66,29.23"/>
	<path class="st0" d="M34,31.14c-1.56,0-2.84,1.27-2.84,2.84c0,1.57,1.27,2.84,2.84,2.84c1.56,0,2.84-1.27,2.84-2.84
		C36.83,32.41,35.56,31.14,34,31.14 M34,35.81c-1.01,0-1.84-0.82-1.84-1.84c0-1.01,0.82-1.84,1.84-1.84c1.01,0,1.84,0.82,1.84,1.84
		C35.83,34.99,35.01,35.81,34,35.81"/>
	<path class="st0" d="M23.93,31.14c-1.17,0-2.12,0.95-2.12,2.12c0,1.17,0.95,2.12,2.12,2.12c1.17,0,2.12-0.95,2.12-2.12
		C26.05,32.09,25.1,31.14,23.93,31.14 M23.93,34.38c-0.62,0-1.12-0.5-1.12-1.12c0-0.62,0.5-1.12,1.12-1.12
		c0.62,0,1.12,0.5,1.12,1.12C25.05,33.88,24.55,34.38,23.93,34.38"/>
	<path class="st0" d="M17.84,36.99c-0.99,0-1.8,0.81-1.8,1.8c0,0.99,0.81,1.8,1.8,1.8c0.99,0,1.8-0.81,1.8-1.8
		C19.64,37.79,18.83,36.99,17.84,36.99 M17.84,39.59c-0.44,0-0.8-0.36-0.8-0.8c0-0.44,0.36-0.8,0.8-0.8c0.44,0,0.8,0.36,0.8,0.8
		C18.64,39.23,18.28,39.59,17.84,39.59"/>
</g>
</svg>
