<?xml version="1.0" encoding="utf-8"?>
<!-- Generator: Adobe Illustrator 27.7.0, SVG Export Plug-In . SVG Version: 6.00 Build 0)  -->
<svg version="1.1" id="Layer_1" xmlns="http://www.w3.org/2000/svg" xmlns:xlink="http://www.w3.org/1999/xlink" x="0px" y="0px"
	 viewBox="0 0 60 53" style="enable-background:new 0 0 60 53;" xml:space="preserve">
<style type="text/css">
	.st0{fill:#DB860B;}
</style>
<path class="st0" d="M32.97,17.31c-3.17,0-5.66,1.47-5.66,3.34S29.8,24,32.97,24c3.17,0,5.66-1.47,5.66-3.34
	S36.14,17.31,32.97,17.31 M32.97,23c-2.52,0-4.66-1.07-4.66-2.34c0-1.27,2.13-2.34,4.66-2.34c2.52,0,4.66,1.07,4.66,2.34
	C37.62,21.93,35.49,23,32.97,23"/>
<path class="st0" d="M53.72,22.26c-0.25-2.15-0.29-2.42-0.54-3.18c-0.19-0.56-0.68-1.75-0.81-1.94c-0.57-0.91-1.16-1.67-1.87-2.4
	c-0.64-0.66-1.38-1.29-2.38-2.04c-0.93-0.7-1.95-1.33-3.04-1.89c-1.09-0.55-2.26-1.03-3.47-1.42C40.39,9,39.1,8.7,37.8,8.5
	c-2.67-0.41-5.51-0.41-8.18,0c-1.3,0.2-2.59,0.5-3.82,0.89c-1.21,0.39-2.38,0.86-3.47,1.42c-1.09,0.55-2.11,1.19-3.04,1.89
	c-0.94,0.71-1.73,1.43-2.42,2.21c-0.68,0.77-1.27,1.61-1.81,2.57l-0.06,0.12c-0.36,0.88-0.6,1.57-0.8,2.43
	c-0.18,0.79-0.32,1.71-0.5,3.1c-0.5,1.22-1.77,1.9-3.12,2.62l-0.3,0.16c-1.4,0.75-3.51,1.88-3.71,4.5L6.56,35
	c0,1.47,0.2,2.69,0.6,3.62c0.27,0.64,0.59,1.01,0.76,1.22c1.06,1.48,2.88,2.7,5.42,3.64c1.98,0.73,4.39,1.29,7.15,1.66
	c2.04,0.27,4.27,0.42,6.83,0.46c0.49,0.01,0.96,0.01,1.42,0.01c0.81,0,1.56-0.01,2.25-0.02c0.57-0.01,1.09-0.01,1.63-0.01
	c1.62-0.12,3.21-0.25,4.74-0.52c1.69-0.31,3.11-0.76,4.48-1.41c1.44-0.69,2.81-1.52,4.08-2.45c1.3-0.96,2.44-2,3.41-3.09
	c1.1-1.25,1.93-2.48,2.55-3.76c0.7-1.47,1.16-2.54,1.51-5.05l0.27-3.51l0.08-3.45L53.72,22.26z M51.65,25.67l-0.26,3.4
	c-0.31,2.21-0.69,3.07-1.33,4.4c-0.54,1.13-1.26,2.18-2.24,3.31c-0.87,0.99-1.91,1.93-3.09,2.8c-1.17,0.86-2.43,1.62-3.76,2.26
	c-1.2,0.58-2.46,0.97-3.96,1.25c-1.43,0.26-2.96,0.38-4.46,0.5c-0.48,0-1,0.01-1.58,0.01c-1.06,0.01-2.29,0.02-3.62,0.01
	c-2.47-0.04-4.63-0.18-6.59-0.44c-2.62-0.35-4.88-0.87-6.72-1.55c-2.15-0.79-3.66-1.78-4.48-2.92c-0.03-0.04-0.07-0.1-0.13-0.16
	C9.31,38.39,9.16,38.21,9,37.84C8.71,37.15,8.56,36.2,8.56,35l0.02-4.52c0.09-1.24,0.93-1.89,2.65-2.82l0.3-0.16
	c1.57-0.84,3.36-1.79,4.09-3.79l0.05-0.22c0.18-1.4,0.31-2.29,0.48-3.03c0.17-0.72,0.38-1.31,0.68-2.07
	c0.46-0.81,0.96-1.53,1.53-2.17c0.6-0.68,1.29-1.31,2.12-1.94c0.84-0.63,1.76-1.2,2.75-1.7c1-0.51,2.06-0.94,3.17-1.29
	c1.13-0.36,2.31-0.64,3.52-0.82c2.47-0.38,5.1-0.38,7.57,0c1.2,0.19,2.39,0.46,3.52,0.82c1.11,0.35,2.17,0.79,3.17,1.29
	c0.98,0.5,1.91,1.07,2.74,1.7c0.91,0.69,1.58,1.26,2.14,1.84c0.6,0.62,1.12,1.28,1.57,2c0.07,0.14,0.46,1.04,0.65,1.6
	c0.18,0.53,0.2,0.63,0.44,2.7L51.65,25.67z"/>
<path class="st0" d="M47.55,17.72c-0.84-1.05-1.67-1.77-3.23-2.79c-1.44-0.94-3.08-2-5.05-2.55c-1.68-0.46-3.82-0.69-6.55-0.69
	c-2.37,0-4.66,0.55-6.4,1.03c-1.87,0.52-3.28,1.44-4.65,2.33l-0.39,0.26c-1.34,1.07-2.18,1.93-2.77,3.37l-0.04,0.11
	c-0.44,1.54-0.49,2.32-0.55,3.08c-0.05,0.7-0.1,1.36-0.47,2.74c-0.67,1.5-2.08,2.31-3.71,3.25c-0.64,0.37-1.29,0.74-1.95,1.19
	l-0.12,0.09c-0.53,0.49-0.83,1.26-0.85,2.17c-0.02,0.71,0.15,1.72,0.68,2.32c0.69,0.96,2.64,2.31,10.91,3.26
	c1.92,0.22,3.88,0.25,5.55,0.25c0.76,0,1.53-0.01,2.3-0.01l1.52-0.01c2.79-0.18,5.16-0.7,7.26-1.58c0.48-0.2,0.89-0.36,1.27-0.51
	c1.4-0.54,2.42-0.93,4.02-2.25l0.55-0.43c1.31-1.02,2.34-1.82,3.18-3.04c1.59-2.24,2.06-4.82,1.39-7.7
	C49.04,20.13,48.32,18.9,47.55,17.72 M46.41,28.18c-0.67,0.97-1.5,1.62-2.76,2.6l-0.57,0.45c-1.37,1.13-2.16,1.44-3.48,1.95
	c-0.39,0.15-0.83,0.32-1.32,0.53c-1.89,0.79-4.05,1.26-6.56,1.42l-1.46,0.01c-0.77,0.01-1.53,0.01-2.28,0.01
	c-1.61,0-3.51-0.03-5.32-0.24c-7.92-0.92-9.3-2.12-9.53-2.47l-0.1-0.12c-0.21-0.29-0.28-1.34-0.02-1.68
	c0.57-0.38,1.17-0.72,1.75-1.05c1.8-1.03,3.66-2.1,4.58-4.27l0.05-0.13c0.43-1.61,0.49-2.44,0.54-3.18c0.05-0.71,0.1-1.32,0.47-2.63
	c0.43-1.03,1.01-1.61,2.07-2.46l0.31-0.2c1.24-0.81,2.52-1.65,4.09-2.08c1.61-0.45,3.74-0.96,5.87-0.96c2.54,0,4.51,0.2,6.02,0.62
	c1.67,0.46,3.17,1.44,4.56,2.34c1.31,0.85,1.99,1.44,2.63,2.24c0.86,1.32,1.32,2.27,1.58,3.21C48.03,24.36,47.66,26.41,46.41,28.18"
	/>
<path class="st0" d="M44.38,23.72c-0.25,0.99-0.83,2.01-1.72,2.99c-1.01,1.11-2.34,2.09-3.88,2.87c0.17,0.29,0.33,0.58,0.5,0.86
	c1.62-0.83,3.03-1.87,4.11-3.06c0.97-1.06,1.59-2.18,1.9-3.29c-0.22-0.13-0.45-0.26-0.67-0.38C44.54,23.72,44.46,23.72,44.38,23.72"
	/>
</svg>
