<?xml version="1.0" encoding="utf-8"?>
<!-- Generator: Adobe Illustrator 27.7.0, SVG Export Plug-In . SVG Version: 6.00 Build 0)  -->
<svg version="1.1" id="Layer_1" xmlns="http://www.w3.org/2000/svg" xmlns:xlink="http://www.w3.org/1999/xlink" x="0px" y="0px"
	 viewBox="0 0 60.01 53.01" style="enable-background:new 0 0 60.01 53.01;" xml:space="preserve">
<style type="text/css">
	.st0{fill:#E59205;}
</style>
<path class="st0" d="M43.85,27.13c-0.01-0.7-0.12-1.42-0.37-2.49c-0.79-3.41-1.89-7.06-4.91-7.06c-1.75,0-3.11,1.26-4.04,3.75
	c-2.6-0.92-5.23-1.77-7.42-2.07l-0.76-3.47l-0.67-5.91c-0.2-1.03-1.34-1.67-2.31-1.83C23.17,8.02,22.96,8,22.76,8
	c-1,0-1.57,0.45-1.87,0.82l-4.54,5.33l-5.4,4.32l-0.11,0.1c-0.68,0.73-0.7,1.61-0.64,2.37c0.16,1.07,1.02,1.7,1.75,1.92l5.19,1.34
	l4.45,1.3c0.18,2.05,0.83,6.18,3.2,10.41c-1.9,0.67-3.1,1.55-3.82,2.77c-0.42,0.71-0.4,1.53,0.05,2.31
	c0.88,1.53,3.41,2.81,6.12,3.25c0.18,0.02,0.37,0.04,0.55,0.06c0.83-0.01,1.66-0.05,2.48-0.1c0.4-0.06,0.79-0.12,1.19-0.15
	c0.39-0.03,0.73-0.01,1.07,0.04c0.09-0.01,0.19-0.01,0.29,0.02c0.03,0.01,0.04,0.03,0.06,0.04c0.5,0.12,0.97,0.34,1.47,0.68
	c2.91,1.19,6.2,1.89,9.16,1.89h0c1.59,0,2.92-0.21,3.85-0.59c0.76-0.32,1.75-1.07,2.18-2.9C50.3,39.54,48.44,32.59,43.85,27.13
	 M47.52,42.58c-0.35,0.02-0.72,0.04-0.97,0c-0.44-0.07-0.69-0.06-1.12-0.25c-0.37-0.24-0.72-0.6-1.06-0.81c-0.01,0-0.03,0-0.04,0
	c-0.07-0.02-0.14-0.03-0.21-0.05c-0.19,0-0.15,0.26-0.19,0.42c0.07,0.27,0.15,0.55,0.21,0.83c0.16,0.39,0.34,0.77,0.54,1.15
	c0.04,0.07,0.07,0.13,0.11,0.2c0.01,0.03,0.03,0.06,0.04,0.09c0.09,0.17,0.08,0.31,0.07,0.45c-0.45,0.05-0.94,0.08-1.47,0.08h0
	c-3.25,0-6.93-0.91-9.93-2.42c-0.11-0.03-0.22-0.07-0.34-0.09c-0.25-0.04-0.49-0.03-0.74-0.02c-0.03,0.01-0.06,0.03-0.09,0.03
	c-0.18,0.02-0.36,0.04-0.54,0.06c-0.01,0-0.02,0-0.02,0c-0.04,0-0.07,0-0.11,0c-0.07,0.02-0.13,0.03-0.21,0.03c0,0,0,0-0.01,0
	c-0.02,0-0.05,0.01-0.07,0.02c-0.04,0-0.08,0-0.12,0c-0.59,0.08-1.16,0.11-2.19,0.11c-2.99,0-5.72-1.43-6.28-2.41
	c-0.11-0.2-0.08-0.26-0.06-0.3c0.58-0.99,1.77-1.67,3.87-2.23l0.64-0.17c0.3-0.22,0.35-0.44,0.3-0.76l-0.36-0.57
	c-2.01-3.16-3.35-7.26-3.59-10.98c-0.05-0.15-0.08-0.31-0.1-0.47c-0.03-0.04-0.05-0.09-0.08-0.13l-0.06-0.08
	c-0.08-0.1-0.15-0.15-0.38-0.32c-0.18-0.1-0.36-0.2-0.53-0.31l-4.73-1.39l-5.13-1.33c-0.01,0-0.01,0-0.01,0c-0.01,0-0.02,0-0.03,0
	c-0.54,0-0.62-0.71-0.25-0.93c0.01-0.01,0.01-0.03,0.02-0.04l5.4-4.32l4.75-5.55c0.02-0.02,0.05-0.06,0.16-0.08
	c0.08-0.07,0.18-0.12,0.29-0.14c0.25-0.14,0.57,0.02,0.68,0.28c0.04,0.03,0.06,0.06,0.09,0.1c0.04,0.02,0.07,0.05,0.09,0.07
	l0.64,5.75l0.91,4.17c0.21,0.52,0.48,0.75,1.03,0.91c0.07,0.02,0.15,0.04,0.22,0.06c2.3,0.25,5.34,1.29,8.28,2.35l0.14,0.05
	c0.11,0.01,0.22,0.01,0.33,0.01c0.36-0.02,0.57-0.15,0.72-0.37l0.1-0.35c0.45-1.51,1.24-3.32,2.46-3.32c1.49,0,2.33,2.78,2.96,5.51
	c0.23,0.99,0.31,1.61,0.31,2.2c0.08,0.17,0.11,0.35,0.14,0.54c0.09,0.18,0.19,0.35,0.28,0.53C46.36,33.2,48.16,39.41,47.52,42.58"/>
<path class="st0" d="M25.65,31.55c0,0.15,0.01,0.3,0.02,0.45h1c-0.01-0.15-0.02-0.3-0.02-0.45c0-4.33,3.17-7.85,7.06-7.85
	c0.15,0,0.3,0.01,0.45,0.02v-1c-0.15-0.01-0.3-0.02-0.45-0.02C29.27,22.69,25.65,26.66,25.65,31.55"/>
<path class="st0" d="M31.35,27.34c0-0.79-0.64-1.44-1.44-1.44c-0.79,0-1.44,0.64-1.44,1.44s0.64,1.44,1.44,1.44
	C30.7,28.78,31.35,28.14,31.35,27.34"/>
</svg>
